<?xml version="1.0" encoding="utf-8"?>
<!-- Generator: Adobe Illustrator 25.0.0, SVG Export Plug-In . SVG Version: 6.00 Build 0)  -->
<svg version="1.1" id="圖層_1" xmlns="http://www.w3.org/2000/svg" xmlns:xlink="http://www.w3.org/1999/xlink" x="0px" y="0px"
	 viewBox="0 0 560 294" style="enable-background:new 0 0 560 294;" xml:space="preserve">
<style type="text/css">
	.st0{fill:#F1C139;}
	.st1{fill:#FFFFFF;}
	.st2{clip-path:url(#SVGID_2_);}
	.st3{fill:#EBA3AE;}
	.st4{fill:#DB6E81;}
	.st5{fill:#053252;}
	.st6{fill:#022F4D;}
	.st7{fill:#053252;filter:url(#Adobe_OpacityMaskFilter);}
	.st8{mask:url(#mask1_1_);}
	.st9{fill:#15876B;}
	.st10{fill:#D05A48;}
	.st11{fill:none;stroke:#C75746;stroke-width:2.6406;stroke-linecap:round;stroke-linejoin:round;stroke-miterlimit:10;}
	.st12{fill:#85C1BF;}
	.st13{fill-rule:evenodd;clip-rule:evenodd;fill:#D05A48;}
</style>
<rect y="0" class="st0" width="560" height="294"/>
<g>
	<g>
		<path class="st1" d="M95.8,82.5c2.4-2.8,5.6-6.4,8.4-8.5c4.3-2.8,7.3-3.8,11.6-3.8c3.1,0,5.9,0.5,8.4,1.6s4.3,2.5,5.6,4.4
			c1.4,2.2,2.2,3.6,2.2,9.4l-0.1,6.2l-0.1,8.2l0.4,14.3h-22.7l0.2-25.9l0-10c0-0.8-0.9-2-2.7-1.8c-1.5,0.1-3.9,2.3-5.4,3.8
			c-1.6,1.7-4.3,3.9-5.8,6.4l-0.1,1.5l0.2,18.2l0.1,7.7H73.3l0.1-17.7V76.6l-0.1-22.8l0-1.9h22.5V53l0,12.5l0,4.4V82.5z"/>
	</g>
	<path class="st1" d="M170,86.8v-4.9c0-3.4-0.1-5.5-0.2-6.3c-0.1-0.8-0.3-1.5-0.8-2.1c-1-1.5-3.4-2.3-7.2-2.3
		c-5.8,0-10.3,1.7-13.4,5.2c-1.3,1.4-2.4,2.1-3.2,2.1c-0.7,0-1.2-0.2-1.7-0.6c-0.5-0.4-0.7-0.9-0.7-1.5c0-1.7,2.1-3.4,6.3-5.3
		c4-1.7,9.2-2.6,15.6-2.6c10.5,0,17.9,1.5,22.2,4.5c1.9,1.3,3.1,2.8,3.7,4.4c0.6,1.6,0.9,4.5,0.9,8.7v16c-0.1,3,0,5.2,0.3,6.7
		c0.3,1.5,1,3.1,2,4.8H170v-4.2c-2.6,1.7-5.2,3-7.8,3.8c-2.6,0.9-5.1,1.3-7.6,1.3c-4.2,0-8-1.2-11.3-3.5c-4.3-3.1-6.4-7.1-6.4-12
		c0-4.3,1.7-7.8,5.2-10.5c4-3.1,9-4.7,15-4.7c2.4,0,4.6,0.2,6.5,0.6C165.5,85,167.6,85.7,170,86.8z M170,89.8
		c-3.6-1.7-6.3-2.5-8.3-2.5c-1.6,0-2.7,0.6-3.2,1.9c-0.3,0.7-0.4,2.6-0.4,5.9v9.7c0,2.1,0.1,3.4,0.2,3.9c0.3,1.2,1.2,1.9,2.9,1.9
		c1.3,0,2.8-0.4,4.4-1.1c1.6-0.7,3.1-1.7,4.4-2.9L170,89.8z"/>
	<path class="st1" d="M224.6,51.3l-0.5,17.2l0,1.3c2.5,0,4.7-0.1,6.7-0.3c0.3,0,0.6,0,0.9,0c1.2,0,1.9,0.5,1.9,1.6
		c0,1-0.7,1.5-2,1.5c-0.4,0-0.9,0-1.5-0.1c-2.2-0.2-3.8-0.2-4.8-0.2h-1.2l0,7.8l0.1,15.7l0.1,8.4c0,2,0.2,3.3,0.5,4.1
		c0.3,0.8,0.9,1.2,1.6,1.2c1,0,2.1-0.6,3.3-1.7c1.1-1.1,2-2.5,2.7-4.2c0.6-1.6,1.3-2.3,2.1-2.3c1,0,1.4,0.5,1.4,1.5
		s-0.5,2.3-1.4,3.8c-1,1.5-2.1,2.8-3.5,4c-3.3,2.8-7.7,4.2-13,4.2c-5,0-8.9-1.4-11.7-4.3c-1.4-1.5-2.4-3.1-2.9-4.9
		c-0.5-1.8-0.8-4.3-0.8-7.4v-3l0-8.5V72.1c-0.4,0-0.7,0-0.9,0c-0.3,0-0.9,0-1.7,0.1c-0.7,0.1-1.3,0.1-1.8,0.1
		c-1.4,0-2.1-0.5-2.1-1.5c0-1,0.7-1.5,2-1.5c0.6,0,1.1,0,1.3,0l3.1,0.2l0-8.7C211.1,57.9,218.4,54.7,224.6,51.3z"/>
	<path class="st1" d="M243.8,106.3c0.6,0,1.3,0.4,2.2,1.2c1.4,1.3,3.4,2.4,6,3.3c2.6,0.9,5,1.4,7.3,1.4c1.1,0,1.8-0.2,2.4-0.5
		c0.5-0.3,0.8-0.8,0.8-1.5s-0.4-1.4-1.1-2.3c-0.7-0.9-2.3-2.6-4.8-5.2c-6.1-6.2-10-10.6-11.8-13.1c-1.8-2.5-2.7-4.9-2.7-7.3
		c0-2,0.6-4,1.9-5.8c1.2-1.8,3-3.4,5.2-4.7c3.7-2.2,7.9-3.2,12.6-3.2c3.5,0,7.2,0.7,11.1,2.1c3,1.1,4.6,2.3,4.6,3.6
		c0,0.4-0.2,0.8-0.5,1.1s-0.8,0.5-1.2,0.5c-0.5,0-1.5-0.5-3-1.5c-3-2-6.3-3.1-9.8-3.1c-1.2,0-2.2,0.2-2.8,0.6c-0.6,0.4-1,1-1,1.7
		c0,0.9,0.6,2.1,1.8,3.5c1.2,1.4,3.6,3.8,7.2,7.1c3.5,3.3,5.7,5.4,6.7,6.4c0.9,1,1.9,2.2,2.7,3.5c1.5,2.3,2.3,4.7,2.3,7.3
		c0,4.1-2.1,7.5-6.3,10.1c-3.5,2.1-7.7,3.2-12.8,3.2c-5.6,0-10.6-1.2-14.9-3.6c-1.3-0.7-2.1-1.3-2.6-1.8c-0.5-0.5-0.7-1-0.7-1.5
		C242.1,106.8,242.7,106.3,243.8,106.3z"/>
	<path class="st1" d="M342.4,69.6l-0.1,31.8l0.1,12.4h-21.8v-5.7c-3.6,2.3-6.9,4-9.8,5.1c-3,1-6.1,1.5-9.3,1.5
		c-5.9,0-10.2-1.7-12.9-5c-1-1.2-1.7-2.6-2.1-4.2c-0.4-1.6-0.6-3.8-0.6-6.7l0.1-9.4l0-6.3l-0.2-13.3h21.8l-0.3,20.3l0,7.7l0,5.2
		c0,3.1,0.2,5,0.6,5.6c0.5,0.7,1.4,1.1,2.7,1.1c1.4,0,2.8-0.3,4.2-1c1.5-0.7,3.4-1.9,5.7-3.6l0-5.3l0.1-14.4l-0.3-14.2v-1.3H342.4z"
		/>
	<path class="st1" d="M389.4,78.1l4.8,7.6l4.6,7.4c4.6,7.2,7.7,11.9,9.3,14.2c1.7,2.3,3.5,4.4,5.5,6.4h-25.3l-7.9-13.1
		c-2.9-4.9-5.1-8.4-6.6-10.6V92l0,7.3l0.1,12.6l0,1.9h-21.8l0.2-19.5l0.1-11.2l-0.2-29.9l-0.1-1.9h21.8l-0.2,33.9v2.2
		c7.9-6.8,13.4-11.2,16.4-13.3c3.9-2.8,7.3-4.2,10.2-4.2c2.2,0,3.3,0.8,3.3,2.3c0,0.5-0.2,1-0.6,1.4c-0.4,0.4-0.9,0.5-1.5,0.5
		c-0.3,0-0.7-0.1-1.2-0.2c-0.8-0.2-1.4-0.3-1.8-0.3c-1.2,0-2.4,0.3-3.8,1C393.6,75.1,391.7,76.3,389.4,78.1z"/>
	<path class="st1" d="M433.8,68.5c4.6,0,8.9,1.2,13,3.6c3.8,2.2,6.7,5.2,8.6,9.1c1.8,3.4,2.6,6.9,2.6,10.7c0,2.6-0.5,5.2-1.6,7.8
		c-1,2.6-2.4,4.9-4.2,7c-2.5,2.8-5.5,4.9-9.1,6.3c-2.9,1.2-6,1.7-9.2,1.7c-5.4,0-10.2-1.5-14.5-4.5c-3.3-2.3-5.9-5.3-7.6-8.9
		c-1.4-3.1-2.2-6.3-2.2-9.7c0-6.7,2.6-12.2,7.7-16.6C422.1,70.7,427.6,68.6,433.8,68.5z M432.6,71.1l-0.1,40.8
		c0.9,0.1,1.5,0.1,1.8,0.1c3.9,0,7.7-1.1,11.3-3.2c3.5-2.1,6.1-4.8,7.8-8.2c1.4-2.7,2-5.7,2-8.9c0-6.5-2.5-11.8-7.6-15.8
		c-4.1-3.3-8.5-4.9-13.3-4.9C434.1,71.1,433.5,71.1,432.6,71.1z"/>
	<path class="st1" d="M486.6,66.9v1.2l-0.1,6.7l-0.1,10.4l-0.1,15.8l0.2,8.9l0.1,3.9h-21.9l0.2-15.8l0.1-14l-0.1-7.3l-0.1-8.2l0-1.6
		H486.6z M475.6,51.8c7.5,0,11.2,2,11.2,5.9c0,1.9-1,3.4-3,4.5s-4.7,1.6-8.3,1.6c-7.1,0-10.7-2-10.7-6.1
		C464.9,53.9,468.5,51.9,475.6,51.8z"/>
</g>
<g>
	<defs>
		<rect id="SVGID_1_" x="158.1" y="28.3" width="260.7" height="265.8"/>
	</defs>
	<clipPath id="SVGID_2_">
		<use xlink:href="#SVGID_1_"  style="overflow:visible;"/>
	</clipPath>
	<g class="st2">
		<path class="st3" d="M368.2,233.7c-2.1-19.2-54.7-23.8-63.3-28.8c-8.6-5-4.8-29.2-4.8-29.2l-19.7-3.2h-0.2l-20.4,3.2
			c0,0,3.7,24.2-4.8,29.2c-8.6,5-60.5,8.9-62.6,28.2c-2.1,19.2,0,60.6,0,60.6h87.1h1.7h87.1C368.2,293.8,370.3,252.9,368.2,233.7z"
			/>
		<path class="st3" d="M368.2,233.7c-2.1-19.2-54.7-23.8-63.3-28.8c-8.6-5-4.8-29.2-4.8-29.2l-19.7-3.2h-0.2l-20.4,3.2
			c0,0,3.7,24.2-4.8,29.2c-8.6,5-60.5,8.9-62.6,28.2c-2.1,19.2,0,60.6,0,60.6h87.1h1.7h87.1C368.2,293.8,370.3,252.9,368.2,233.7z"
			/>
		<path class="st3" d="M368.2,233.7c-2.1-19.2-54.7-23.8-63.3-28.8c-8.6-5-4.8-29.2-4.8-29.2l-19.7-3.2h-0.2l-20.4,3.2
			c0,0,3.7,24.2-4.8,29.2c-8.6,5-60.5,8.9-62.6,28.2c-2.1,19.2,0,60.6,0,60.6h87.1h1.7h87.1C368.2,293.8,370.3,252.9,368.2,233.7z"
			/>
		<path class="st4" d="M299.3,191.2c-0.6-7.7,0.7-15.4,0.7-15.4l-19.7-3.2h-0.2l-20.4,3.2c0,0,2.5,16.2-1.3,24.8
			C271.7,193.1,289.5,191.4,299.3,191.2z"/>
		<path class="st5" d="M368.2,233.7c-2.1-19.2-54.7-23.8-63.3-28.8c-3-1.7-4.5-5.9-5.2-10.4c-6.3,1.2-13,1.9-20.1,1.9
			c-6.9,0-13.5-0.6-19.6-1.8c-0.7,4.6-2.1,8.6-5.2,10.4c-8.6,5-60.5,8.9-62.6,28.2c-2.1,19.2,0,60.6,0,60.6h87.1h1.7h87.1
			C368.2,293.8,370.3,252.9,368.2,233.7z"/>
		<path class="st3" d="M311.9,131.4c0.5-4.4-0.1-10.3-2.3-13.6l-5.8-14.7c-3.3-5-12.8-4.6-18.7-4.6h-10c-6,0-15.5-0.4-18.7,4.6
			l-5.8,14.7c-2.2,3.3-2.7,9.2-2.3,13.6c-0.2,2.8-0.2,5.5,0.2,7.3c-0.3,1.9-0.2,3.9,0.1,5.9l1.7,18.9c1,5.1,6,12.1,10.5,14.7l9,10
			c5.6,3.2,15.1,3.2,20.7,0l9-10c4.4-2.6,9.6-9.7,10.5-14.7l1.7-18.9c0.4-1.9,0.4-3.9,0.2-5.8C312.2,136.9,312.2,134.2,311.9,131.4z
			"/>
		<path class="st6" d="M277.8,164.9c1,0,1-1.6,0-1.6C276.8,163.3,276.8,164.9,277.8,164.9z"/>
		<path class="st6" d="M282.5,164.9c1,0,1-1.6,0-1.6C281.5,163.3,281.5,164.9,282.5,164.9z"/>
		<defs>
			<filter id="Adobe_OpacityMaskFilter" filterUnits="userSpaceOnUse" x="196" y="201.6" width="176" height="93.2">
				<feColorMatrix  type="matrix" values="1 0 0 0 0  0 1 0 0 0  0 0 1 0 0  0 0 0 1 0"/>
			</filter>
		</defs>
		<mask maskUnits="userSpaceOnUse" x="196" y="201.6" width="176" height="93.2" id="mask1_1_">
			<path class="st7" d="M323,209.9l-42.8,29.3l-44.4-29.1c-18.6,4.2-44.1,10.9-45.6,24.3c-1,8.2,2.6,101.4,2.6,101.4H279h88.7
				c0,0,3-92.4,2.1-100.8C368.5,221.6,341.8,214.3,323,209.9z"/>
		</mask>
		<g class="st8">
			<path class="st9" d="M203.2,201.6H196v93.2h7.2V201.6z"/>
			<path class="st9" d="M220.1,201.6h-7.2v93.2h7.2V201.6z"/>
			<path class="st9" d="M236.9,201.6h-7.2v93.2h7.2V201.6z"/>
			<path class="st9" d="M253.8,201.6h-7.2v93.2h7.2V201.6z"/>
			<path class="st9" d="M270.7,201.6h-7.2v93.2h7.2V201.6z"/>
			<path class="st9" d="M287.5,201.6h-7.2v93.2h7.2V201.6z"/>
			<path class="st9" d="M304.4,201.6h-7.2v93.2h7.2V201.6z"/>
			<path class="st9" d="M321.3,201.6h-7.2v93.2h7.2V201.6z"/>
			<path class="st9" d="M338.2,201.6H331v93.2h7.2V201.6z"/>
			<path class="st9" d="M355.1,201.6h-7.2v93.2h7.2V201.6z"/>
			<path class="st9" d="M372,201.6h-7.2v93.2h7.2V201.6z"/>
		</g>
		<path class="st10" d="M296.9,230.6c0.7-3.1-1.8-8.1-4.8-8c-2.9,0-5.6,5.1-4.6,8.2c0.6,2,1.9,3.4,4.8,3.4
			C295,234.2,296.4,232.3,296.9,230.6z"/>
		<path class="st10" d="M284.7,230.6c0.7-3.1-1.8-8.1-4.8-8c-2.9,0-5.6,5.1-4.6,8.2c0.6,2,1.9,3.4,4.8,3.4
			C282.8,234.2,284.3,232.3,284.7,230.6z"/>
		<path class="st10" d="M272.6,230.6c0.7-3.1-1.8-8.1-4.8-8c-2.9,0-5.6,5.1-4.6,8.2c0.6,2,1.9,3.4,4.8,3.4
			C270.7,234.2,272.1,232.3,272.6,230.6z"/>
		<path class="st1" d="M296.4,283.3h-32.7c-5.6,0-10.1-4.5-10.1-10.1v-32.7c0-5.6,4.5-10.1,10.1-10.1h32.7c5.6,0,10.1,4.5,10.1,10.1
			v32.7C306.5,278.7,302,283.3,296.4,283.3z"/>
		<path class="st11" d="M257.9,240.2c3.6,0,3.6,4,7.1,4c3.6,0,3.6-4,7.1-4c3.6,0,3.6,4,7.1,4c3.6,0,3.6-4,7.1-4c3.6,0,3.6,4,7.1,4
			s3.6-4,7.1-4"/>
		<path class="st12" d="M310,258h-9v38h9V258z"/>
		<path class="st12" d="M301,258h-8v38h8V258z"/>
		<path class="st12" d="M293,258h-9v38h9V258z"/>
		<path class="st12" d="M284,258h-8v38h8V258z"/>
		<path class="st12" d="M276,258h-9v38h9V258z"/>
		<path class="st12" d="M267,258h-8v38h8V258z"/>
		<path class="st12" d="M259,258h-9v38h9V258z"/>
		<path class="st12" d="M250,258h-8v38h8V258z"/>
		<path class="st12" d="M318,258h-8v38h8V258z"/>
		<path class="st5" d="M303.1,101.5l-6.3,9.3c0,0,2.1,0,6.3,2.4c4,2.4,6.6-1.2,5.5,8.5c-0.6,5.9,3,8.2,3,8.2l0.4,9
			c0,0,2.4-17,2.1-25.1C313.8,109.2,310.3,102.6,303.1,101.5z"/>
		<path class="st5" d="M302.8,101.3c0,0-5.6,8.5-6.5,9.2c-1.6,1.3-4.1,3.4-6.1,3.6c-2.9,0.4-13.1-1.8-17-3.1
			c-11.1-3.4-18,11.2-22.4,7.7c-6.8-5.6-12.1-22.6,20.5-31.8C285.9,82.8,301.6,93.8,302.8,101.3z"/>
		<path class="st5" d="M257.3,101.5l8.7,6.9c0,0-4.6,2.4-8.6,4.7c-4,2.4-6.6-1.2-5.5,8.5c0.6,5.9-3,8.2-3,8.2l-0.4,9
			c0,0-2.4-17-2.1-25.1C246.5,109.2,250.1,102.6,257.3,101.5z"/>
		<path class="st13" d="M353.7,149.5c0,0,4.6-4.9,0.9-9.7c0,0-5.4-5.6-9.8,2.5c-0.2,0.3-0.4,0.1-0.4,0c-4.5-8.3-9.9-2.5-9.9-2.5
			c-3.8,5,1,9.6,1,9.6c3.7,4.2,8.8,8.2,8.8,8.2s0.3,0.3,0.6,0C344.9,157.9,350,153.8,353.7,149.5z"/>
	</g>
</g>
</svg>
