<svg xmlns="http://www.w3.org/2000/svg" viewBox="0 0 24 24"><defs><style>.cls-1{fill:#003454}</style></defs><g id="圖層_1" data-name="圖層 1"><path class="cls-1" d="M6 21.32a3.37 3.37 0 01-2.46-.9c-2.49-2.5.5-8.19 4.58-12.26a21.93 21.93 0 016.69-4.75c2.44-1 4.43-1 5.57.17 2.49 2.5-.5 8.19-4.58 12.26a21.93 21.93 0 01-6.69 4.75 8.12 8.12 0 01-3.11.73zM18 4.66a6.25 6.25 0 00-2.35.58 20 20 0 00-6.09 4.32C5.21 13.9 4 18 5 19c.51.52 1.81.42 3.39-.25a20 20 0 006.06-4.32C18.79 10.1 20 6 19 5a1.44 1.44 0 00-1-.34z"/><path class="cls-1" d="M18.12 21.08a8.62 8.62 0 01-2.92-.61A22.06 22.06 0 018.31 16a22.28 22.28 0 01-5-6.49c-1.13-2.41-1.15-4.39 0-5.58s3.01-1.33 5.49-.4A22.06 22.06 0 0115.69 8a22.28 22.28 0 015 6.49c1.13 2.41 1.15 4.39.05 5.58a3.43 3.43 0 01-2.62 1.01zM5.87 4.91a1.54 1.54 0 00-1.16.37c-.5.53-.35 1.83.38 3.38a20.3 20.3 0 004.57 5.88 20 20 0 006.23 4.07c1.61.6 2.91.64 3.4.11s.35-1.83-.38-3.38a20.3 20.3 0 00-4.57-5.88 20 20 0 00-6.23-4.07 6.69 6.69 0 00-2.24-.48z"/><circle class="cls-1" cx="11.66" cy="12" r="1.5"/><path class="cls-1" d="M11.66 14.07A2.07 2.07 0 1113.73 12a2.07 2.07 0 01-2.07 2.07zm0-3a.92.92 0 10.92.92.92.92 0 00-.92-.91z"/></g></svg>