<svg xmlns="http://www.w3.org/2000/svg" viewBox="0 0 24 24"><defs><style>.cls-1{fill:#003454}</style></defs><g id="圖層_1" data-name="圖層 1"><path class="cls-1" d="M12 17.12a8.31 8.31 0 113.84-.95 8.2 8.2 0 01-3.84.95zm0-15a6.53 6.53 0 00-3.07.77A6.64 6.64 0 1014 2.43a6.57 6.57 0 00-2.06-.27z"/><path class="cls-1" d="M6.9 23.49a.85.85 0 01-.38-.09.83.83 0 01-.45-.73v-5.41a.83.83 0 011.66 0v3.81L11 18.78a.8.8 0 01.89 0l4.32 2.5v-4a.83.83 0 111.65 0v5.41a.83.83 0 01-1.24.71l-5.1-2.95-4.14 2.89a.85.85 0 01-.48.15zM11.94 13.6a5 5 0 01-1.32-.18.78.78 0 01.38-1.51 3.28 3.28 0 002.51-.3 3.3 3.3 0 00-.73-6 .78.78 0 11.42-1.5A4.85 4.85 0 0114.31 13a4.75 4.75 0 01-2.37.6z"/></g></svg>