<svg xmlns="http://www.w3.org/2000/svg" viewBox="0 0 100 100"><defs><style>.cls-2{fill:#fff;stroke:#003454;stroke-linecap:round;stroke-linejoin:round;stroke-width:1.18px}</style></defs><g id="圖層_1" data-name="圖層 1"><path d="M59.45 25.59a93.06 93.06 0 00-19.12 2.28 2.59 2.59 0 00-.42-.09 36.34 36.34 0 00-4.91-.33c-10.68 0-22.13 4.61-24.89 15.94C8.74 48.9 10 55.31 14 59.49a17.18 17.18 0 007.66 4.31c2.3.71 4.7 1.14 6.78 2.42 2.39 1.47 4.23 3.64 6.34 5.47 5.55 4.81 12.53 6.56 19.76 6.61h.51c7.49 0 15.88-1 22.74-4 6.57-2.86 11.74-8.2 12.57-15.53.79-7-1.17-16.19-5-22.11-5.36-8.48-15.5-11.07-25.91-11.07z" fill="#f9e1ae"/><path class="cls-2" d="M43.63 54.77s-7.75 11.71-20.06 12l10 2.4-4 7.17S46 72.27 52.21 57.94"/><path class="cls-2" d="M57.52 48.44s4.32 17.32 21.08 20l-9 3L71.44 77s-19-3.11-24.37-31.64"/><path d="M58.47 61.29c-2 1.05-4.61.09-6.74.28s-4.61 1.58-6.69.93-3.27-3.15-5-4.57-4.32-2.06-5.38-4.08-.09-4.61-.29-6.74-1.57-4.6-.92-6.69 3.14-3.27 4.57-5 2.06-4.33 4.07-5.39 4.62-.09 6.75-.28 4.6-1.58 6.69-.93 3.27 3.15 5 4.57 4.33 2.06 5.39 4.08.09 4.61.28 6.74 1.58 4.6.93 6.69-3.15 3.27-4.57 5-2.07 4.33-4.09 5.39z" fill="#fff"/><path d="M58.47 61.29c-2 1.05-4.61.09-6.74.28s-4.61 1.58-6.69.93-3.27-3.15-5-4.57-4.32-2.06-5.38-4.08-.09-4.61-.29-6.74-1.57-4.6-.92-6.69 3.14-3.27 4.57-5 2.06-4.33 4.07-5.39 4.62-.09 6.75-.28 4.6-1.58 6.69-.93 3.27 3.15 5 4.57 4.33 2.06 5.39 4.08.09 4.61.28 6.74 1.58 4.6.93 6.69-3.15 3.27-4.57 5-2.07 4.33-4.09 5.39z" fill="none" stroke="#003454" stroke-linecap="round" stroke-linejoin="round" stroke-width="1.18"/><circle class="cls-2" cx="50.29" cy="45.68" r="11.94"/><path class="cls-2" d="M50.59 39.83l1.7 3.43a.35.35 0 00.25.19l3.79.55a.33.33 0 01.19.57l-2.75 2.67a.36.36 0 00-.09.3l.65 3.78a.34.34 0 01-.49.35l-3.39-1.78a.34.34 0 00-.31 0l-3.39 1.78a.34.34 0 01-.49-.35l.65-3.78a.34.34 0 00-.1-.3l-2.74-2.67a.33.33 0 01.18-.57l3.75-.55a.36.36 0 00.26-.19L50 39.83a.33.33 0 01.59 0z"/></g></svg>