<svg xmlns="http://www.w3.org/2000/svg" viewBox="0 0 100 100"><defs><style>.cls-2,.cls-3{fill:#fff;stroke:#003454;stroke-linecap:round;stroke-linejoin:round;stroke-width:1.18px}.cls-3{fill:none}</style></defs><g id="圖層_1" data-name="圖層 1"><path d="M84.07 44.25a73.84 73.84 0 00-8.44-5.13c-4.3-2.5-7.6-5.88-11-9.46-6.51-6.9-15.78-11.81-24.91-11.81a23.38 23.38 0 00-9.15 1.82 1.92 1.92 0 00-.41-.05A2.16 2.16 0 0029 20a36.67 36.67 0 00-3.29 2.47c-.62.46-1.22 1-1.82 1.49a2.27 2.27 0 00-.53.65C14.76 33.1 9.62 45.9 14.5 57.46c2.92 6.9 8.78 10.8 15.94 12.32 4.05.85 8.21 1 12.25 1.91 4.49 1 8.19 3.18 12.16 5.35a25.11 25.11 0 0012 3.55 18.67 18.67 0 008.19-1.93 28.82 28.82 0 0014.29-15.89c2.5-7.01.61-13.94-5.26-18.52z" fill="#f9e1ae"/><path class="cls-2" d="M53.07 58.25h30.77v21.3H53.07zM51.49 68.51h32.35M68.06 59.04v19.72"/><path class="cls-2" d="M57.87 79.55H23.8l1.4-35.09h31.28l1.39 35.09z"/><path class="cls-3" d="M34.92 50.36V41a3.23 3.23 0 013.23-3.22h4.59A3.23 3.23 0 0146 41v9.4M67.68 58.22c3.26-.68 1.11-6.43 4.75-7.57a3 3 0 013.41 1.27c2.16 3.93-5.84 5.82-8.16 6.3z"/><path class="cls-3" d="M69.37 58.22c-3.26-.68-1.11-6.43-4.75-7.57a3 3 0 00-3.41 1.27c-2.16 3.93 5.84 5.82 8.16 6.3zM24.96 50.36h31.75"/></g></svg>