<svg xmlns="http://www.w3.org/2000/svg" viewBox="0 0 100 100"><defs><style>.cls-2{fill:#fff}.cls-2,.cls-3,.cls-4{stroke:#003454;stroke-linecap:round;stroke-linejoin:round;stroke-width:1.18px}.cls-3{fill:#003454}.cls-4{fill:none}</style></defs><g id="圖層_1" data-name="圖層 1"><path d="M78 36.33c-10-1.65-19-1.3-28-6.74C44 25.94 38.16 23 31.54 23a23.17 23.17 0 00-6.08.82 26.38 26.38 0 00-14.38 9.64 2.35 2.35 0 00-.57.6c-5 7.32-9.64 16-8.54 25.18.94 7.91 6.22 14.49 13.15 18.18a34.76 34.76 0 0016.49 3.76 57.06 57.06 0 009.69-.88c5.67-1 11.24-3 17.05-3H59c5.46.15 10.68 2.21 16.12 2.6.55 0 1.1.06 1.64.06 15.47 0 26.75-16.1 20-30.67C93.22 41.66 86.13 37.67 78 36.33z" fill="#f9e1ae"/><path class="cls-2" d="M70.72 54.58v22.71H28.51V54.58M45.64 40.38h5.79V50.9h-5.79z"/><path class="cls-2" d="M70.54 48.27c3.11 0 5.63 2.82 5.63 6.31s-2.52 6.31-5.63 6.31a5.63 5.63 0 01-5.13-3.74 5.4 5.4 0 01-10.28 0 5.4 5.4 0 01-10.28 0 5.39 5.39 0 01-10.27 0 5.65 5.65 0 01-5.14 3.74c-3.11 0-5.63-2.83-5.63-6.31s2.52-6.31 5.63-6.31zM28.51 67.73h41.77M44 38.86s-3.26-6 2.86-7.79 5.52-5.22 5.82-7.1c0 0 7 5.23.49 14.8M45.9 43.01h5.52M45.9 45.64h5.52"/><circle class="cls-3" cx="29.88" cy="53.1" r=".2"/><circle class="cls-3" cx="39.29" cy="56.12" r=".2"/><circle class="cls-3" cx="43.69" cy="51.98" r=".2"/><circle class="cls-3" cx="70.72" cy="54.38" r=".2"/><circle class="cls-3" cx="50.24" cy="54.18" r=".2"/><circle class="cls-3" cx="59.93" cy="55.92" r=".2"/><circle class="cls-3" cx="55.97" cy="52.18" r=".2"/><path class="cls-4" d="M24.96 37.88h7.1M28.51 41.43v-7.1M65.21 23.97h7.1M68.76 27.52v-7.1"/><path class="cls-2" d="M22.83 77.29h53.13"/></g></svg>