<svg xmlns="http://www.w3.org/2000/svg" viewBox="0 0 100 100"><defs><style>.cls-3{fill:#f9e1ae}.cls-2{fill:#fff}.cls-2,.cls-3{stroke:#003454;stroke-linecap:round;stroke-linejoin:round;stroke-width:1.2px}</style></defs><g id="圖層_1" data-name="圖層 1"><path d="M73.9 24.51A23 23 0 0065.42 23a34.51 34.51 0 00-14.67 3.67c-4.17 2-7.84 4.75-11.82 7.06a17.21 17.21 0 01-9.39 2.66c-.69 0-1.4 0-2.16-.08h-.8c-6.45 0-12.07 5.51-14.82 10.92a23.3 23.3 0 00-.43 20.38 19.87 19.87 0 0015.56 11.6 25.39 25.39 0 003.57.24 59.4 59.4 0 007.2-.58 59.23 59.23 0 017.18-.58 23.38 23.38 0 016.28.8c4.32 1.2 8.37 2.22 12.34 2.22a19 19 0 0011.26-3.55 26.46 26.46 0 009.9-13.27 2.25 2.25 0 00.35-.73C89.16 49.7 90.25 30.9 73.9 24.51z" fill="#f9e1ae"/><path class="cls-2" d="M58.36 44.63h-1.63a10.14 10.14 0 00-7 2.72 10.18 10.18 0 00-7-2.72h-1.6c-5.41 0-9.83 4.1-9.83 9.11v3c0 5 4.42 9.1 9.83 9.1h1.64a10.22 10.22 0 007-2.71 10.18 10.18 0 007 2.71h1.63c5.41 0 9.83-4.09 9.83-9.1v-3c-.04-5.01-4.46-9.11-9.87-9.11z"/><path class="cls-2" d="M55.18 71H30.69L24.6 49.41l2.94 2.12a12.79 12.79 0 0018.19-3.38l3.85-5.89 3.93 6a12.81 12.81 0 0018.08 3.47l3.31-2.33L68.8 71H54.21"/><ellipse class="cls-3" cx="49.75" cy="39.05" rx="3.02" ry="4.2"/><circle class="cls-3" cx="24.61" cy="49.69" r="2.56"/><circle class="cls-3" cx="75.13" cy="49.65" r="2.56"/><path class="cls-2" d="M50 53.62L51.56 57a.31.31 0 00.23.18l3.46.55a.34.34 0 01.17.57l-2.5 2.7a.36.36 0 00-.09.3l.59 3.7a.31.31 0 01-.44.35l-3.09-1.77a.26.26 0 00-.29 0l-3.08 1.77a.32.32 0 01-.45-.35l.59-3.75a.33.33 0 00-.09-.3l-2.5-2.65a.34.34 0 01.17-.57l3.46-.55a.3.3 0 00.23-.18l1.54-3.41a.3.3 0 01.53.03zM67.03 71.06h3.74v7.8H28.72v-7.8h38.31"/><circle cx="49.75" cy="75.11" r=".98" fill="#003454" stroke="#003454" stroke-linecap="round" stroke-linejoin="round" stroke-width="1.2"/><path class="cls-2" d="M33.61 75.11h10.76M55.12 75.11h10.76"/></g></svg>