<?xml version="1.0" encoding="utf-8"?>
<!-- Generator: Adobe Illustrator 25.0.0, SVG Export Plug-In . SVG Version: 6.00 Build 0)  -->
<svg version="1.1" id="圖層_1" xmlns="http://www.w3.org/2000/svg" xmlns:xlink="http://www.w3.org/1999/xlink" x="0px" y="0px"
	 viewBox="0 0 560 294" style="enable-background:new 0 0 560 294;" xml:space="preserve">
<style type="text/css">
	.st0{fill:#DC5C49;}
	.st1{fill:#FFFFFF;}
	.st2{fill:#053252;}
	.st3{fill:#D05A48;}
	.st4{fill:#EBA3AE;}
	.st5{fill:#DB6E81;}
	.st6{fill:#022F4D;}
	.st7{fill:#E8BB3D;}
	.st8{fill:none;stroke:#DC5C49;stroke-width:1.5856;stroke-linecap:round;stroke-linejoin:round;stroke-miterlimit:10;}
	.st9{fill:none;stroke:#E8BB3D;stroke-width:1.5856;stroke-linecap:round;stroke-miterlimit:10;}
</style>
<rect y="0" class="st0" width="560" height="294"/>
<g>
	<g>
		<path class="st1" d="M95.8,82.5c2.4-2.8,5.6-6.4,8.4-8.5c4.3-2.8,7.3-3.8,11.6-3.8c3.1,0,5.9,0.5,8.4,1.6s4.3,2.5,5.6,4.4
			c1.4,2.2,2.2,3.6,2.2,9.4l-0.1,6.2l-0.1,8.2l0.4,14.3h-22.7l0.2-25.9l0-10c0-0.8-0.9-2-2.7-1.8c-1.5,0.1-3.9,2.3-5.4,3.8
			c-1.6,1.7-4.3,3.9-5.8,6.4l-0.1,1.5l0.2,18.2l0.1,7.7H73.3l0.1-17.7V76.6l-0.1-22.8l0-1.9h22.5V53l0,12.5l0,4.4V82.5z"/>
	</g>
	<path class="st1" d="M170,86.8v-4.9c0-3.4-0.1-5.5-0.2-6.3c-0.1-0.8-0.3-1.5-0.8-2.1c-1-1.5-3.4-2.3-7.2-2.3
		c-5.8,0-10.3,1.7-13.4,5.2c-1.3,1.4-2.4,2.1-3.2,2.1c-0.7,0-1.2-0.2-1.7-0.6c-0.5-0.4-0.7-0.9-0.7-1.5c0-1.7,2.1-3.4,6.3-5.3
		c4-1.7,9.2-2.6,15.6-2.6c10.5,0,17.9,1.5,22.2,4.5c1.9,1.3,3.1,2.8,3.7,4.4c0.6,1.6,0.9,4.5,0.9,8.7v16c-0.1,3,0,5.2,0.3,6.7
		c0.3,1.5,1,3.1,2,4.8H170v-4.2c-2.6,1.7-5.2,3-7.8,3.8c-2.6,0.9-5.1,1.3-7.6,1.3c-4.2,0-8-1.2-11.3-3.5c-4.3-3.1-6.4-7.1-6.4-12
		c0-4.3,1.7-7.8,5.2-10.5c4-3.1,9-4.7,15-4.7c2.4,0,4.6,0.2,6.5,0.6C165.5,85,167.6,85.7,170,86.8z M170,89.8
		c-3.6-1.7-6.3-2.5-8.3-2.5c-1.6,0-2.7,0.6-3.2,1.9c-0.3,0.7-0.4,2.6-0.4,5.9v9.7c0,2.1,0.1,3.4,0.2,3.9c0.3,1.2,1.2,1.9,2.9,1.9
		c1.3,0,2.8-0.4,4.4-1.1c1.6-0.7,3.1-1.7,4.4-2.9L170,89.8z"/>
	<path class="st1" d="M224.6,51.3l-0.5,17.2l0,1.3c2.5,0,4.7-0.1,6.7-0.3c0.3,0,0.6,0,0.9,0c1.2,0,1.9,0.5,1.9,1.6
		c0,1-0.7,1.5-2,1.5c-0.4,0-0.9,0-1.5-0.1c-2.2-0.2-3.8-0.2-4.8-0.2h-1.2l0,7.8l0.1,15.7l0.1,8.4c0,2,0.2,3.3,0.5,4.1
		c0.3,0.8,0.9,1.2,1.6,1.2c1,0,2.1-0.6,3.3-1.7c1.1-1.1,2-2.5,2.7-4.2c0.6-1.6,1.3-2.3,2.1-2.3c1,0,1.4,0.5,1.4,1.5
		s-0.5,2.3-1.4,3.8c-1,1.5-2.1,2.8-3.5,4c-3.3,2.8-7.7,4.2-13,4.2c-5,0-8.9-1.4-11.7-4.3c-1.4-1.5-2.4-3.1-2.9-4.9
		c-0.5-1.8-0.8-4.3-0.8-7.4v-3l0-8.5V72.1c-0.4,0-0.7,0-0.9,0c-0.3,0-0.9,0-1.7,0.1c-0.7,0.1-1.3,0.1-1.8,0.1
		c-1.4,0-2.1-0.5-2.1-1.5c0-1,0.7-1.5,2-1.5c0.6,0,1.1,0,1.3,0l3.1,0.2l0-8.7C211.1,57.9,218.4,54.7,224.6,51.3z"/>
	<path class="st1" d="M243.8,106.3c0.6,0,1.3,0.4,2.2,1.2c1.4,1.3,3.4,2.4,6,3.3c2.6,0.9,5,1.4,7.3,1.4c1.1,0,1.8-0.2,2.4-0.5
		c0.5-0.3,0.8-0.8,0.8-1.5s-0.4-1.4-1.1-2.3c-0.7-0.9-2.3-2.6-4.8-5.2c-6.1-6.2-10-10.6-11.8-13.1c-1.8-2.5-2.7-4.9-2.7-7.3
		c0-2,0.6-4,1.9-5.8c1.2-1.8,3-3.4,5.2-4.7c3.7-2.2,7.9-3.2,12.6-3.2c3.5,0,7.2,0.7,11.1,2.1c3,1.1,4.6,2.3,4.6,3.6
		c0,0.4-0.2,0.8-0.5,1.1s-0.8,0.5-1.2,0.5c-0.5,0-1.5-0.5-3-1.5c-3-2-6.3-3.1-9.8-3.1c-1.2,0-2.2,0.2-2.8,0.6c-0.6,0.4-1,1-1,1.7
		c0,0.9,0.6,2.1,1.8,3.5c1.2,1.4,3.6,3.8,7.2,7.1c3.5,3.3,5.7,5.4,6.7,6.4c0.9,1,1.9,2.2,2.7,3.5c1.5,2.3,2.3,4.7,2.3,7.3
		c0,4.1-2.1,7.5-6.3,10.1c-3.5,2.1-7.7,3.2-12.8,3.2c-5.6,0-10.6-1.2-14.9-3.6c-1.3-0.7-2.1-1.3-2.6-1.8c-0.5-0.5-0.7-1-0.7-1.5
		C242.1,106.8,242.7,106.3,243.8,106.3z"/>
	<path class="st1" d="M342.4,69.6l-0.1,31.8l0.1,12.4h-21.8v-5.7c-3.6,2.3-6.9,4-9.8,5.1c-3,1-6.1,1.5-9.3,1.5
		c-5.9,0-10.2-1.7-12.9-5c-1-1.2-1.7-2.6-2.1-4.2c-0.4-1.6-0.6-3.8-0.6-6.7l0.1-9.4l0-6.3l-0.2-13.3h21.8l-0.3,20.3l0,7.7l0,5.2
		c0,3.1,0.2,5,0.6,5.6c0.5,0.7,1.4,1.1,2.7,1.1c1.4,0,2.8-0.3,4.2-1c1.5-0.7,3.4-1.9,5.7-3.6l0-5.3l0.1-14.4l-0.3-14.2v-1.3H342.4z"
		/>
	<path class="st1" d="M389.4,78.1l4.8,7.6l4.6,7.4c4.6,7.2,7.7,11.9,9.3,14.2c1.7,2.3,3.5,4.4,5.5,6.4h-25.3l-7.9-13.1
		c-2.9-4.9-5.1-8.4-6.6-10.6V92l0,7.3l0.1,12.6l0,1.9h-21.8l0.2-19.5l0.1-11.2l-0.2-29.9l-0.1-1.9h21.8l-0.2,33.9v2.2
		c7.9-6.8,13.4-11.2,16.4-13.3c3.9-2.8,7.3-4.2,10.2-4.2c2.2,0,3.3,0.8,3.3,2.3c0,0.5-0.2,1-0.6,1.4c-0.4,0.4-0.9,0.5-1.5,0.5
		c-0.3,0-0.7-0.1-1.2-0.2c-0.8-0.2-1.4-0.3-1.8-0.3c-1.2,0-2.4,0.3-3.8,1C393.6,75.1,391.7,76.3,389.4,78.1z"/>
	<path class="st1" d="M433.8,68.5c4.6,0,8.9,1.2,13,3.6c3.8,2.2,6.7,5.2,8.6,9.1c1.8,3.4,2.6,6.9,2.6,10.7c0,2.6-0.5,5.2-1.6,7.8
		c-1,2.6-2.4,4.9-4.2,7c-2.5,2.8-5.5,4.9-9.1,6.3c-2.9,1.2-6,1.7-9.2,1.7c-5.4,0-10.2-1.5-14.5-4.5c-3.3-2.3-5.9-5.3-7.6-8.9
		c-1.4-3.1-2.2-6.3-2.2-9.7c0-6.7,2.6-12.2,7.7-16.6C422.1,70.7,427.6,68.6,433.8,68.5z M432.6,71.1l-0.1,40.8
		c0.9,0.1,1.5,0.1,1.8,0.1c3.9,0,7.7-1.1,11.3-3.2c3.5-2.1,6.1-4.8,7.8-8.2c1.4-2.7,2-5.7,2-8.9c0-6.5-2.5-11.8-7.6-15.8
		c-4.1-3.3-8.5-4.9-13.3-4.9C434.1,71.1,433.5,71.1,432.6,71.1z"/>
	<path class="st1" d="M486.6,66.9v1.2l-0.1,6.7l-0.1,10.4l-0.1,15.8l0.2,8.9l0.1,3.9h-21.9l0.2-15.8l0.1-14l-0.1-7.3l-0.1-8.2l0-1.6
		H486.6z M475.6,51.8c7.5,0,11.2,2,11.2,5.9c0,1.9-1,3.4-3,4.5s-4.7,1.6-8.3,1.6c-7.1,0-10.7-2-10.7-6.1
		C464.9,53.9,468.5,51.9,475.6,51.8z"/>
</g>
<path class="st2" d="M280,154.6c30.4,0,55-6,55-13.3c0-7.4-24.6-13.3-55-13.3s-55,6-55,13.3C225,148.7,249.6,154.6,280,154.6z"/>
<path class="st3" d="M269.9,126.5c0,0,35.4,10.3,36.1,21.7c1.2,17.9,2.6,18.6,9.2-4.7c2.8-9.8-2.2-16.5-10.6-23.2
	C296.1,113.5,284.7,115.2,269.9,126.5z"/>
<path class="st3" d="M289.9,126.5c0,0-35.4,10.3-36.1,21.7c-1.2,17.9-2.6,18.6-9.2-4.7c-2.7-9.8,2.2-16.5,10.6-23.2
	C263.8,113.5,275.1,115.2,289.9,126.5z"/>
<path class="st4" d="M369,233.1c-2.2-19.3-55.4-24-64.1-29c-8.6-5-4.9-29.4-4.9-29.4l-20-3.2h-0.2l-20.6,3.2c0,0,3.8,24.4-4.9,29.4
	c-8.6,5-61.2,9-63.4,28.3c-2.2,19.3,0,62.4,0,62.4h88.2h1.7H369C369,294.9,371.2,252.5,369,233.1z"/>
<path class="st5" d="M299.4,190.3c-0.6-7.7,0.7-15.6,0.7-15.6l-20-3.2h-0.2l-20.6,3.2c0,0,2.6,16.3-1.4,25
	C271.4,192.2,289.4,190.6,299.4,190.3z"/>
<path class="st5" d="M295.5,188.8c0.2-5.8,1.4-10.8,1.4-10.8h-16.8h-0.2h-16.8c0,0,2.1,9.3,1.3,17.3
	C274.6,191.8,284.6,190,295.5,188.8z"/>
<path class="st4" d="M269.5,187.4l-9.1-10.2c-4.5-2.6-9.7-9.7-10.6-14.8l-1.7-19c-0.9-4.5,0.1-9.2,2.6-13.1l9.1-13.8
	c3.4-5.1,9-8.1,15-8.1H285c6.1,0,11.8,3,15,8.1l9.1,13.8c2.6,3.9,3.5,8.6,2.6,13.1l-1.7,19c-1,5.1-6.2,12.1-10.6,14.8l-9,10.2
	C284.8,190.6,275.1,190.6,269.5,187.4z"/>
<path class="st4" d="M269.5,173.5l-9.1-10.1c-4.5-2.6-9.7-9.7-10.6-14.8l-1.7-19c-0.9-4.5,0.1-9.2,2.6-13.1l9.1-13.8
	c3.4-5.1,9-8.2,15.1-8.2h10.2c6.1,0,11.8,3,15,8.1l9.1,13.8c2.6,3.9,3.5,8.6,2.6,13.1l-1.7,19c-1,5.1-6.2,12.1-10.6,14.8l-9.1,10.1
	C284.8,176.8,275.1,176.8,269.5,173.5z"/>
<path class="st6" d="M277.6,165.8c1,0,1-1.6,0-1.6S276.6,165.8,277.6,165.8z"/>
<path class="st6" d="M282.4,165.8c1,0,1-1.6,0-1.6S281.4,165.8,282.4,165.8z"/>
<path class="st7" d="M369,233.1c-1.9-17-43.3-22.6-59.1-27.1c-7.4,14.6-15.6,30.5-15.6,30.5l-14.6,12.9l-2.2-1.7l-23.1-43.6
	c-8.8,5-61.2,9-63.4,28.3c-2.2,19.3,0,62.4,0,62.4h88.2h1.7H369C369,294.9,371.2,252.5,369,233.1z"/>
<path class="st2" d="M258.6,196.8c0,0,6,34.3,21.8,53.1c2.2,2.6-16.2-12.9-26.7-15.2c-1-0.2,6.2-6.7,6-6.8
	c-6.6-2.9-15.4-3.1-15.4-3.3c0.6-6,3-16.5,4.1-18.4C253.6,199.6,258.6,196.8,258.6,196.8z"/>
<path class="st1" d="M369,233.1c-1.9-17-43.3-22.6-59.1-27.1c-7.4,14.6-15.6,32.4-15.6,32.4l-14.6,10.9l-1.6,1.6v43.9H369
	C369.4,268.6,370.4,245.7,369,233.1z"/>
<path class="st2" d="M300.8,196.8c0,0-6.8,35.1-22.6,54c-2.2,2.6,17-13.7,27.5-16c1-0.2-6.2-6.7-6-6.8c6.6-2.9,15.4-3.1,15.4-3.3
	c-0.6-6-3-16.5-4.1-18.4C305.7,199.6,300.8,196.8,300.8,196.8z"/>
<path class="st2" d="M280.9,123.4c13.4,0,25.8,1.1,35.7,2.9c-1-5.3-5-25.9-6-27.7c-2.8-7.3-10.2-12.6-17.8-12.6h-25
	c-7.7,0-15,5.2-17.8,12.6c-1,1.9-5.1,23.1-6.1,28C253.9,124.6,266.8,123.4,280.9,123.4z"/>
<path class="st2" d="M243.4,142c0,0,28.1,7.5,51,2.7c22.8-4.8,27.3,2.1,34.2,1.3c5.7-0.6-18.4-28.7-18.4-28.7l-59.8,0.2l-20.3,23.1
	L243.4,142z"/>
<path class="st8" d="M312.6,159.9c0.4-0.2,0.8-0.2,1.3-0.2c1.8,0,3.1,1.4,3.1,3.1c0,1.2-0.6,2.2-1.7,2.7c-0.5,0.2-1,0.4-1.5,0.4
	c-0.9,0-1.7-0.3-2.2-0.9"/>
<path class="st3" d="M230.2,262.6c-11.8,0-21.5-7.5-21.5-16.7c0-9.2,9.7-16.7,21.5-16.7c11.8,0,21.5,7.5,21.5,16.7
	C251.8,255.1,242.1,262.6,230.2,262.6z M230.2,233.1c-9.7,0-17.6,5.7-17.6,12.9c0,7.1,7.9,12.9,17.6,12.9c9.7,0,17.6-5.7,17.6-12.9
	C247.8,238.8,239.9,233.1,230.2,233.1z"/>
<path class="st0" d="M262.6,223.2H224c-0.2,0-0.3,0.2-0.3,0.4l2.4,8v34.1c0,6.7,5.5,12.1,12.2,12.1h9.8c6.8,0,12.2-5.5,12.2-12.1
	v-34.1l2.4-8C262.9,223.3,262.7,223.2,262.6,223.2z"/>
<path class="st7" d="M339.6,262.1H305c-0.7,0-1.3-0.6-1.3-1.3v-6.2c0-0.7,0.6-1.3,1.3-1.3h34.6c0.7,0,1.3,0.6,1.3,1.3v6.2
	C340.9,261.6,340.3,262.1,339.6,262.1z"/>
<path class="st9" d="M305.4,120.1c2.2,0.7,5.3,4,6.6,6.3"/>
<path class="st9" d="M311.4,119.7c-0.3,1-2.2,5.2-5.6,7.4"/>
<path class="st9" d="M294.8,121.3c2.2,1.3,5.6,2.8,7.4,6.2"/>
<path class="st9" d="M301.4,121c-2.2,1.9-5.5,5.6-6.1,7.8"/>
</svg>
