<?xml version="1.0" encoding="utf-8"?>
<!-- Generator: Adobe Illustrator 25.0.0, SVG Export Plug-In . SVG Version: 6.00 Build 0)  -->
<svg version="1.1" id="圖層_1" xmlns="http://www.w3.org/2000/svg" xmlns:xlink="http://www.w3.org/1999/xlink" x="0px" y="0px"
	 viewBox="0 0 560 294" style="enable-background:new 0 0 560 294;" xml:space="preserve">
<style type="text/css">
	.st0{fill:#15876B;}
	.st1{fill:#FFFFFF;}
	.st2{fill:none;stroke:#F1C139;stroke-width:2;stroke-linecap:round;}
	.st3{fill:#F1C139;}
	.st4{fill:#EBA3AE;}
	.st5{fill:#053252;}
	.st6{fill:#DB6E81;}
	.st7{fill:#022F4D;}
	.st8{fill:#DC5C49;}
	.st9{fill:#8FCFCD;}
</style>
<rect x="0.1" y="0" class="st0" width="560" height="294"/>
<g>
	<g>
		<path class="st1" d="M95.8,82.5c2.4-2.8,5.6-6.4,8.4-8.5c4.3-2.8,7.3-3.8,11.6-3.8c3.1,0,5.9,0.5,8.4,1.6s4.3,2.5,5.6,4.4
			c1.4,2.2,2.2,3.6,2.2,9.4l-0.1,6.2l-0.1,8.2l0.4,14.3h-22.7l0.2-25.9l0-10c0-0.8-0.9-2-2.7-1.8c-1.5,0.1-3.9,2.3-5.4,3.8
			c-1.6,1.7-4.3,3.9-5.8,6.4l-0.1,1.5l0.2,18.2l0.1,7.7H73.3l0.1-17.7V76.6l-0.1-22.8l0-1.9h22.5V53l0,12.5l0,4.4V82.5z"/>
	</g>
	<path class="st1" d="M170,86.8v-4.9c0-3.4-0.1-5.5-0.2-6.3c-0.1-0.8-0.3-1.5-0.8-2.1c-1-1.5-3.4-2.3-7.2-2.3
		c-5.8,0-10.3,1.7-13.4,5.2c-1.3,1.4-2.4,2.1-3.2,2.1c-0.7,0-1.2-0.2-1.7-0.6c-0.5-0.4-0.7-0.9-0.7-1.5c0-1.7,2.1-3.4,6.3-5.3
		c4-1.7,9.2-2.6,15.6-2.6c10.5,0,17.9,1.5,22.2,4.5c1.9,1.3,3.1,2.8,3.7,4.4c0.6,1.6,0.9,4.5,0.9,8.7v16c-0.1,3,0,5.2,0.3,6.7
		c0.3,1.5,1,3.1,2,4.8H170v-4.2c-2.6,1.7-5.2,3-7.8,3.8c-2.6,0.9-5.1,1.3-7.6,1.3c-4.2,0-8-1.2-11.3-3.5c-4.3-3.1-6.4-7.1-6.4-12
		c0-4.3,1.7-7.8,5.2-10.5c4-3.1,9-4.7,15-4.7c2.4,0,4.6,0.2,6.5,0.6C165.5,85,167.6,85.7,170,86.8z M170,89.8
		c-3.6-1.7-6.3-2.5-8.3-2.5c-1.6,0-2.7,0.6-3.2,1.9c-0.3,0.7-0.4,2.6-0.4,5.9v9.7c0,2.1,0.1,3.4,0.2,3.9c0.3,1.2,1.2,1.9,2.9,1.9
		c1.3,0,2.8-0.4,4.4-1.1c1.6-0.7,3.1-1.7,4.4-2.9L170,89.8z"/>
	<path class="st1" d="M224.6,51.3l-0.5,17.2l0,1.3c2.5,0,4.7-0.1,6.7-0.3c0.3,0,0.6,0,0.9,0c1.2,0,1.9,0.5,1.9,1.6
		c0,1-0.7,1.5-2,1.5c-0.4,0-0.9,0-1.5-0.1c-2.2-0.2-3.8-0.2-4.8-0.2h-1.2l0,7.8l0.1,15.7l0.1,8.4c0,2,0.2,3.3,0.5,4.1
		c0.3,0.8,0.9,1.2,1.6,1.2c1,0,2.1-0.6,3.3-1.7c1.1-1.1,2-2.5,2.7-4.2c0.6-1.6,1.3-2.3,2.1-2.3c1,0,1.4,0.5,1.4,1.5
		s-0.5,2.3-1.4,3.8c-1,1.5-2.1,2.8-3.5,4c-3.3,2.8-7.7,4.2-13,4.2c-5,0-8.9-1.4-11.7-4.3c-1.4-1.5-2.4-3.1-2.9-4.9
		c-0.5-1.8-0.8-4.3-0.8-7.4v-3l0-8.5V72.1c-0.4,0-0.7,0-0.9,0c-0.3,0-0.9,0-1.7,0.1c-0.7,0.1-1.3,0.1-1.8,0.1
		c-1.4,0-2.1-0.5-2.1-1.5c0-1,0.7-1.5,2-1.5c0.6,0,1.1,0,1.3,0l3.1,0.2l0-8.7C211.1,57.9,218.4,54.7,224.6,51.3z"/>
	<path class="st1" d="M243.8,106.3c0.6,0,1.3,0.4,2.2,1.2c1.4,1.3,3.4,2.4,6,3.3c2.6,0.9,5,1.4,7.3,1.4c1.1,0,1.8-0.2,2.4-0.5
		c0.5-0.3,0.8-0.8,0.8-1.5s-0.4-1.4-1.1-2.3c-0.7-0.9-2.3-2.6-4.8-5.2c-6.1-6.2-10-10.6-11.8-13.1c-1.8-2.5-2.7-4.9-2.7-7.3
		c0-2,0.6-4,1.9-5.8c1.2-1.8,3-3.4,5.2-4.7c3.7-2.2,7.9-3.2,12.6-3.2c3.5,0,7.2,0.7,11.1,2.1c3,1.1,4.6,2.3,4.6,3.6
		c0,0.4-0.2,0.8-0.5,1.1s-0.8,0.5-1.2,0.5c-0.5,0-1.5-0.5-3-1.5c-3-2-6.3-3.1-9.8-3.1c-1.2,0-2.2,0.2-2.8,0.6c-0.6,0.4-1,1-1,1.7
		c0,0.9,0.6,2.1,1.8,3.5c1.2,1.4,3.6,3.8,7.2,7.1c3.5,3.3,5.7,5.4,6.7,6.4c0.9,1,1.9,2.2,2.7,3.5c1.5,2.3,2.3,4.7,2.3,7.3
		c0,4.1-2.1,7.5-6.3,10.1c-3.5,2.1-7.7,3.2-12.8,3.2c-5.6,0-10.6-1.2-14.9-3.6c-1.3-0.7-2.1-1.3-2.6-1.8c-0.5-0.5-0.7-1-0.7-1.5
		C242.1,106.8,242.7,106.3,243.8,106.3z"/>
	<path class="st1" d="M342.4,69.6l-0.1,31.8l0.1,12.4h-21.8v-5.7c-3.6,2.3-6.9,4-9.8,5.1c-3,1-6.1,1.5-9.3,1.5
		c-5.9,0-10.2-1.7-12.9-5c-1-1.2-1.7-2.6-2.1-4.2c-0.4-1.6-0.6-3.8-0.6-6.7l0.1-9.4l0-6.3l-0.2-13.3h21.8l-0.3,20.3l0,7.7l0,5.2
		c0,3.1,0.2,5,0.6,5.6c0.5,0.7,1.4,1.1,2.7,1.1c1.4,0,2.8-0.3,4.2-1c1.5-0.7,3.4-1.9,5.7-3.6l0-5.3l0.1-14.4l-0.3-14.2v-1.3H342.4z"
		/>
	<path class="st1" d="M389.4,78.1l4.8,7.6l4.6,7.4c4.6,7.2,7.7,11.9,9.3,14.2c1.7,2.3,3.5,4.4,5.5,6.4h-25.3l-7.9-13.1
		c-2.9-4.9-5.1-8.4-6.6-10.6V92l0,7.3l0.1,12.6l0,1.9h-21.8l0.2-19.5l0.1-11.2l-0.2-29.9l-0.1-1.9h21.8l-0.2,33.9v2.2
		c7.9-6.8,13.4-11.2,16.4-13.3c3.9-2.8,7.3-4.2,10.2-4.2c2.2,0,3.3,0.8,3.3,2.3c0,0.5-0.2,1-0.6,1.4c-0.4,0.4-0.9,0.5-1.5,0.5
		c-0.3,0-0.7-0.1-1.2-0.2c-0.8-0.2-1.4-0.3-1.8-0.3c-1.2,0-2.4,0.3-3.8,1C393.6,75.1,391.7,76.3,389.4,78.1z"/>
	<path class="st1" d="M433.8,68.5c4.6,0,8.9,1.2,13,3.6c3.8,2.2,6.7,5.2,8.6,9.1c1.8,3.4,2.6,6.9,2.6,10.7c0,2.6-0.5,5.2-1.6,7.8
		c-1,2.6-2.4,4.9-4.2,7c-2.5,2.8-5.5,4.9-9.1,6.3c-2.9,1.2-6,1.7-9.2,1.7c-5.4,0-10.2-1.5-14.5-4.5c-3.3-2.3-5.9-5.3-7.6-8.9
		c-1.4-3.1-2.2-6.3-2.2-9.7c0-6.7,2.6-12.2,7.7-16.6C422.1,70.7,427.6,68.6,433.8,68.5z M432.6,71.1l-0.1,40.8
		c0.9,0.1,1.5,0.1,1.8,0.1c3.9,0,7.7-1.1,11.3-3.2c3.5-2.1,6.1-4.8,7.8-8.2c1.4-2.7,2-5.7,2-8.9c0-6.5-2.5-11.8-7.6-15.8
		c-4.1-3.3-8.5-4.9-13.3-4.9C434.1,71.1,433.5,71.1,432.6,71.1z"/>
	<path class="st1" d="M486.6,66.9v1.2l-0.1,6.7l-0.1,10.4l-0.1,15.8l0.2,8.9l0.1,3.9h-21.9l0.2-15.8l0.1-14l-0.1-7.3l-0.1-8.2l0-1.6
		H486.6z M475.6,51.8c7.5,0,11.2,2,11.2,5.9c0,1.9-1,3.4-3,4.5s-4.7,1.6-8.3,1.6c-7.1,0-10.7-2-10.7-6.1
		C464.9,53.9,468.5,51.9,475.6,51.8z"/>
</g>
<path class="st2" d="M323.3,163.8c5,2.8,16.8,5.8,24.3-4.6"/>
<path class="st3" d="M354.5,140l2.3,5l5.2,0.8l-3.8,3.9l0.9,5.4l-4.6-2.5l-4.6,2.5l0.8-5.4l-3.7-3.9l5.2-0.8L354.5,140z"/>
<path class="st4" d="M271.4,174.9l-9.8-5.6c-4.2-2.4-7.1-7-8.1-11.7l-3.5-18.1c-0.8-4.2,0.1-8.5,2.5-12l8.5-12.7
	c3.1-4.6,8.4-7.4,14.1-7.4h9.5c5.7,0,11,2.8,14.1,7.4l8.5,12.7c2.4,3.6,3.3,7.9,2.5,12l-3.5,18.1c-0.9,4.7-3.8,9.3-8.1,11.7
	l-9.8,5.6C283.2,178,276.7,178,271.4,174.9z"/>
<path class="st5" d="M280.4,108.2c0,0,11.2-2.8,20.2,3.6c8.4,5.8,10.1,10.2,11.2,14.6c1.1,4.4,1.2,10.4,1.2,10.4s-4,11.2-4.4,10.9
	c-0.5-0.3-28-12.5-28-12.5L280.4,108.2z"/>
<path class="st5" d="M279.7,108.2c0,0-11.2-2.8-20.2,3.6c-8.4,5.8-10.1,10.2-11.2,14.6c-1.1,4.3-1.2,10.4-1.2,10.4s4,11.2,4.4,10.9
	c0.5-0.3,28-12.5,28-12.5L279.7,108.2z"/>
<path class="st4" d="M353.7,232.4c-2.1-18.4-47.3-16.2-55.7-20.9c-8.4-4.8-3.5-26.1-3.5-26.1h-14.4h-0.2h-14.4
	c0,0,4.9,21.3-3.5,26.1c-8.4,4.8-53.6,2.6-55.7,20.9s0,61.4,0,61.4h72.9h1.6h72.9C353.7,293.9,355.8,250.8,353.7,232.4z"/>
<path class="st6" d="M294.5,185.5h-14.4h-0.2h-14.4c0,0,1.8,7.7,1.3,14.9c8.3-2,17-3.6,26.3-4.5
	C293.4,190.4,294.5,185.5,294.5,185.5z"/>
<path class="st4" d="M271.4,193.4l-9.8-5.6c-4.2-2.4-7.1-7-8.1-11.7l-3.5-18.1c-0.8-4.2,0.1-8.5,2.5-12l8.5-12.7
	c3.1-4.6,8.4-7.4,14.1-7.4h9.5c5.7,0,11,2.8,14.1,7.4l8.5,12.7c2.4,3.6,3.3,7.9,2.5,12l-3.5,18.1c-0.9,4.7-3.8,9.3-8.1,11.7
	l-9.8,5.6C283.2,196.5,276.7,196.5,271.4,193.4z"/>
<path class="st7" d="M278.3,172.7c1,0,1-1.5,0-1.5C277.2,171.2,277.2,172.7,278.3,172.7z"/>
<path class="st7" d="M281.7,172.7c1,0,1-1.5,0-1.5C280.7,171.2,280.7,172.7,281.7,172.7z"/>
<path class="st8" d="M278.6,115.6c2.9-1,25.3,4.6,31.6,14.2c4.3,6.4,3.9,8.4,3.7,9.2c-0.2,0.8-1,1.3-1,2c0,0.8,0.4,0.8,0.5,2.1
	c0.1,1.1-0.6,1.7-0.4,2.1c0.4,0.7,0.5,2.7-0.3,3.2c-0.8,0.4-0.2,1.9-0.1,2.5c0.1,0.6-0.2,1.4-0.6,1.8c-0.4,0.5,1.4,9.9-7.9,2.5
	c-9.3-7.5-30.5-19.6-31.2-25.1c-0.8-5.5,5-3.4,4-7C276,119.9,276.6,116.3,278.6,115.6z"/>
<path class="st3" d="M281.1,115.3c-3.8-2.3-25,4.9-31.4,14.5c-4.3,6.4-3.9,8.4-3.7,9.2c0.2,0.8,1,1.3,1,2c0,0.8-0.4,0.8-0.5,2.1
	c-0.1,1.1,0.6,1.7,0.4,2.1c-0.4,0.7-0.5,2.7,0.3,3.2c0.8,0.4,0.2,1.9,0.1,2.5c-0.2,0.5,0.2,1.4,0.6,1.8c0.4,0.5-1.4,9.9,7.9,2.5
	c9.3-7.4,30.4-19.6,31.2-25.1c0.8-5.5-5-3.4-4-7C284,119.9,283.5,116.7,281.1,115.3z"/>
<path class="st5" d="M285.9,108.9c0,0,4.3-0.5,6-8.2c1.5-6.8-0.9-10.8-6.3-13c-5.3-2.2-9.4-2.5-13.4,0.9c-4,3.4-7.1,5.7-6,10.1
	c1.1,4.4-0.8,8.2,4.4,10.1C275.8,110.8,285.9,108.9,285.9,108.9z"/>
<path class="st9" d="M279.1,237.9c0,0,31.5-6.6,38.3-21.8c2-4.5,7.4-1.8,7.4-1.8s11.6,1.4,26.5,10.7c6.5,4.2,8.8,69.2,8.8,69.2
	h-80.9V237.9z"/>
<path class="st9" d="M280.9,237.9c0,0-31.5-6.6-38.3-21.8c-2-4.5-7.4-1.8-7.4-1.8s-11.6,1.4-26.5,10.7c-6.5,4.2-8.8,68.7-8.8,68.7
	h80.8L280.9,237.9L280.9,237.9z"/>
<path class="st8" d="M280.1,180.3c-2.2,0-7.4,0.5-7.4,0.5c0.9,0,2.8-2.7,4.3-3c0.9-0.2,2-0.2,2.4,0c0.3,0.2,0.6,0.2,0.8,0.2v0.3
	v-0.3c0.1,0,0.5,0,0.8-0.2c0.4-0.2,1.5-0.2,2.4,0c1.5,0.3,3.4,3,4.3,3C287.5,180.8,282.3,180.3,280.1,180.3z"/>
<path class="st8" d="M280,181.9h7.7c-0.9,0-2.9,2.8-4.4,3.1c-0.9,0.2-2.1-0.1-2.5-0.3c-0.3-0.2-0.6-0.2-0.8-0.2s-0.5,0-0.8,0.2
	c-0.4,0.2-1.5,0.5-2.5,0.3c-1.5-0.4-3.5-3.1-4.4-3.1H280z"/>
<path class="st5" d="M310.6,205.2h-21.1c-5.7,0-10.4,4.5-10.4,10.1l1.2,13.7l1.2,13.7c0,5.6,2.4,7.9,8.1,7.9h21
	c5.7,0,8.1-2.3,8.1-7.9l2.2-27.4C320.9,209.7,316.3,205.2,310.6,205.2z M312.3,237.1c0,3.9-1,7-5,7h-14.6c-4,0-5-3.2-5-7l-2.2-19
	c0-3.9,3.3-7,7.2-7h14.6c4,0,7.2,3.2,7.2,7L312.3,237.1z"/>
<path class="st5" d="M335.5,272.7h-71c-1.9,0-3.3-1.8-2.8-3.6l11.9-39.5c0.4-1.2,1.5-2,2.8-2h47.1c1.3,0,2.4,0.8,2.8,2l11.9,39.5
	C338.9,270.9,337.5,272.7,335.5,272.7z"/>
<path class="st1" d="M326.5,229.5c-0.4-1.2-1.5-2-2.8-2h-47.2c-1.3,0-2.4,0.8-2.8,2L269,245c2.9,2.4,6.5,4.7,11.1,5.7
	c8.7,1.9,11.9-2.6,21.8-1.1c9.7,1.6,10.7,6.6,20.4,9.2c4.1,1.1,8.8,1.6,13.3,1.4L326.5,229.5z"/>
<path class="st0" d="M236.5,233.5c0,0,2.7-1.3,4.6-0.2c2,1.3,2.5,3.5,2.5,3.5s0.4,1.1-2.5-0.2c-1.1-0.5-2.5,0.1-2.5,0.1
	s3.5,0.5,4.3,1.4c0.7,0.8,0.2,2.3,0.2,2.3s-2.9-1.3-4.3-1.1c-0.6,0.2-0.5,0.4,0.4,0.6c1.2,0.3,2.8,0.8,3.3,1.4
	c0.5,0.7,0.2,2.9-0.2,2.6c-1.3-1.1-3.6-1.3-3.6-1.3c0.8,0.4,1.7,1.7,1.5,2c-0.2,0.4-1.4,2.3-1.9,2.3c-0.5,0-2.3-1.1-2.9-1.5
	c-0.7-0.5,0.7-2.7,1-2.9c0.2-0.1-0.5,0.2-1.2,0.8c-0.6,0.4-1.1,1.5-1.2,1.7c-0.3,0.3-1.2-0.8-1.3-1.7c-0.1-1.4,1.2-2.6,2.1-3.4
	c0.8-0.7,0.4-0.7-0.2-0.3c-1.9,1-2.7,3.2-2.7,3.2s-1.7-0.6-1.8-1.5c-0.1-1.6,2.9-3.8,3.8-4.4c0.4-0.3-0.2-0.4-0.2-0.4
	s-3.6,1.7-4.2,2.8c-0.2,0.5-0.7-3,1.2-4.5C232.3,233,235,232.2,236.5,233.5z"/>
<path class="st5" d="M248,183.5c0.1-0.2,2.5-4.3,2.5-4.3l-2.5-4.7l-2.5,4.7L248,183.5z"/>
<path class="st5" d="M312.3,183.5c0.1-0.2,2.5-4.3,2.5-4.3l-2.5-4.7l-2.5,4.7L312.3,183.5z"/>
</svg>
