<?xml version="1.0" encoding="utf-8"?>
<!-- Generator: Adobe Illustrator 25.0.0, SVG Export Plug-In . SVG Version: 6.00 Build 0)  -->
<svg version="1.1" id="圖層_1" xmlns="http://www.w3.org/2000/svg" xmlns:xlink="http://www.w3.org/1999/xlink" x="0px" y="0px"
	 viewBox="0 0 560 294" style="enable-background:new 0 0 560 294;" xml:space="preserve">
<style type="text/css">
	.st0{fill:#8AC8C7;}
	.st1{fill:#FFFFFF;}
	.st2{clip-path:url(#SVGID_2_);}
	.st3{fill:#053252;}
	.st4{fill:#EBA3AE;}
	.st5{fill:#DB6E81;}
	.st6{fill:#022F4D;}
	.st7{fill:#DC5C49;}
	.st8{fill:#F1C139;}
	.st9{fill:none;stroke:#15876B;stroke-width:3.8691;stroke-miterlimit:10;}
	.st10{fill:none;stroke:#FFFFFF;stroke-width:1.5477;stroke-linecap:round;stroke-linejoin:round;stroke-miterlimit:10;}
</style>
<rect y="0" class="st0" width="560" height="294"/>
<g>
	<g>
		<path class="st1" d="M95.8,85.5c2.4-2.8,5.6-6.4,8.4-8.5c4.3-2.8,7.3-3.8,11.6-3.8c3.1,0,5.9,0.5,8.4,1.6s4.3,2.5,5.6,4.4
			c1.4,2.2,2.2,3.6,2.2,9.4l-0.1,6.2l-0.1,8.2l0.4,14.3h-22.7l0.2-25.9l0-10c0-0.8-0.9-2-2.7-1.8c-1.5,0.1-3.9,2.3-5.4,3.8
			c-1.6,1.7-4.3,3.9-5.8,6.4l-0.1,1.5l0.2,18.2l0.1,7.7H73.3l0.1-17.7V79.6l-0.1-22.8l0-1.9h22.5V56l0,12.5l0,4.4V85.5z"/>
	</g>
	<path class="st1" d="M170,89.8v-4.9c0-3.4-0.1-5.5-0.2-6.3c-0.1-0.8-0.3-1.5-0.8-2.1c-1-1.5-3.4-2.3-7.2-2.3
		c-5.8,0-10.3,1.7-13.4,5.2c-1.3,1.4-2.4,2.1-3.2,2.1c-0.7,0-1.2-0.2-1.7-0.6c-0.5-0.4-0.7-0.9-0.7-1.5c0-1.7,2.1-3.4,6.3-5.3
		c4-1.7,9.2-2.6,15.6-2.6c10.5,0,17.9,1.5,22.2,4.5c1.9,1.3,3.1,2.8,3.7,4.4c0.6,1.6,0.9,4.5,0.9,8.7v16c-0.1,3,0,5.2,0.3,6.7
		c0.3,1.5,1,3.1,2,4.8H170v-4.2c-2.6,1.7-5.2,3-7.8,3.8c-2.6,0.9-5.1,1.3-7.6,1.3c-4.2,0-8-1.2-11.3-3.5c-4.3-3.1-6.4-7.1-6.4-12
		c0-4.3,1.7-7.8,5.2-10.5c4-3.1,9-4.7,15-4.7c2.4,0,4.6,0.2,6.5,0.6C165.5,88,167.6,88.7,170,89.8z M170,92.8
		c-3.6-1.7-6.3-2.5-8.3-2.5c-1.6,0-2.7,0.6-3.2,1.9c-0.3,0.7-0.4,2.6-0.4,5.9v9.7c0,2.1,0.1,3.4,0.2,3.9c0.3,1.2,1.2,1.9,2.9,1.9
		c1.3,0,2.8-0.4,4.4-1.1c1.6-0.7,3.1-1.7,4.4-2.9L170,92.8z"/>
	<path class="st1" d="M224.6,54.3l-0.5,17.2l0,1.3c2.5,0,4.7-0.1,6.7-0.3c0.3,0,0.6,0,0.9,0c1.2,0,1.9,0.5,1.9,1.6
		c0,1-0.7,1.5-2,1.5c-0.4,0-0.9,0-1.5-0.1c-2.2-0.2-3.8-0.2-4.8-0.2h-1.2l0,7.8l0.1,15.7l0.1,8.4c0,2,0.2,3.3,0.5,4.1
		c0.3,0.8,0.9,1.2,1.6,1.2c1,0,2.1-0.6,3.3-1.7c1.1-1.1,2-2.5,2.7-4.2c0.6-1.6,1.3-2.3,2.1-2.3c1,0,1.4,0.5,1.4,1.5
		s-0.5,2.3-1.4,3.8c-1,1.5-2.1,2.8-3.5,4c-3.3,2.8-7.7,4.2-13,4.2c-5,0-8.9-1.4-11.7-4.3c-1.4-1.5-2.4-3.1-2.9-4.9
		c-0.5-1.8-0.8-4.3-0.8-7.4v-3l0-8.5V75.1c-0.4,0-0.7,0-0.9,0c-0.3,0-0.9,0-1.7,0.1c-0.7,0.1-1.3,0.1-1.8,0.1
		c-1.4,0-2.1-0.5-2.1-1.5c0-1,0.7-1.5,2-1.5c0.6,0,1.1,0,1.3,0l3.1,0.2l0-8.7C211.1,60.9,218.4,57.7,224.6,54.3z"/>
	<path class="st1" d="M243.8,109.3c0.6,0,1.3,0.4,2.2,1.2c1.4,1.3,3.4,2.4,6,3.3c2.6,0.9,5,1.4,7.3,1.4c1.1,0,1.8-0.2,2.4-0.5
		c0.5-0.3,0.8-0.8,0.8-1.5s-0.4-1.4-1.1-2.3c-0.7-0.9-2.3-2.6-4.8-5.2c-6.1-6.2-10-10.6-11.8-13.1c-1.8-2.5-2.7-4.9-2.7-7.3
		c0-2,0.6-4,1.9-5.8c1.2-1.8,3-3.4,5.2-4.7c3.7-2.2,7.9-3.2,12.6-3.2c3.5,0,7.2,0.7,11.1,2.1c3,1.1,4.6,2.3,4.6,3.6
		c0,0.4-0.2,0.8-0.5,1.1s-0.8,0.5-1.2,0.5c-0.5,0-1.5-0.5-3-1.5c-3-2-6.3-3.1-9.8-3.1c-1.2,0-2.2,0.2-2.8,0.6c-0.6,0.4-1,1-1,1.7
		c0,0.9,0.6,2.1,1.8,3.5c1.2,1.4,3.6,3.8,7.2,7.1c3.5,3.3,5.7,5.4,6.7,6.4c0.9,1,1.9,2.2,2.7,3.5c1.5,2.3,2.3,4.7,2.3,7.3
		c0,4.1-2.1,7.5-6.3,10.1c-3.5,2.1-7.7,3.2-12.8,3.2c-5.6,0-10.6-1.2-14.9-3.6c-1.3-0.7-2.1-1.3-2.6-1.8c-0.5-0.5-0.7-1-0.7-1.5
		C242.1,109.8,242.7,109.3,243.8,109.3z"/>
	<path class="st1" d="M342.4,72.6l-0.1,31.8l0.1,12.4h-21.8v-5.7c-3.6,2.3-6.9,4-9.8,5.1c-3,1-6.1,1.5-9.3,1.5
		c-5.9,0-10.2-1.7-12.9-5c-1-1.2-1.7-2.6-2.1-4.2c-0.4-1.6-0.6-3.8-0.6-6.7l0.1-9.4l0-6.3l-0.2-13.3h21.8l-0.3,20.3l0,7.7l0,5.2
		c0,3.1,0.2,5,0.6,5.6c0.5,0.7,1.4,1.1,2.7,1.1c1.4,0,2.8-0.3,4.2-1c1.5-0.7,3.4-1.9,5.7-3.6l0-5.3l0.1-14.4l-0.3-14.2v-1.3H342.4z"
		/>
	<path class="st1" d="M389.4,81.1l4.8,7.6l4.6,7.4c4.6,7.2,7.7,11.9,9.3,14.2c1.7,2.3,3.5,4.4,5.5,6.4h-25.3l-7.9-13.1
		c-2.9-4.9-5.1-8.4-6.6-10.6V95l0,7.3l0.1,12.6l0,1.9h-21.8l0.2-19.5l0.1-11.2l-0.2-29.9l-0.1-1.9h21.8l-0.2,33.9v2.2
		c7.9-6.8,13.4-11.2,16.4-13.3c3.9-2.8,7.3-4.2,10.2-4.2c2.2,0,3.3,0.8,3.3,2.3c0,0.5-0.2,1-0.6,1.4c-0.4,0.4-0.9,0.5-1.5,0.5
		c-0.3,0-0.7-0.1-1.2-0.2c-0.8-0.2-1.4-0.3-1.8-0.3c-1.2,0-2.4,0.3-3.8,1C393.6,78.1,391.7,79.3,389.4,81.1z"/>
	<path class="st1" d="M433.8,71.5c4.6,0,8.9,1.2,13,3.6c3.8,2.2,6.7,5.2,8.6,9.1c1.8,3.4,2.6,6.9,2.6,10.7c0,2.6-0.5,5.2-1.6,7.8
		c-1,2.6-2.4,4.9-4.2,7c-2.5,2.8-5.5,4.9-9.1,6.3c-2.9,1.2-6,1.7-9.2,1.7c-5.4,0-10.2-1.5-14.5-4.5c-3.3-2.3-5.9-5.3-7.6-8.9
		c-1.4-3.1-2.2-6.3-2.2-9.7c0-6.7,2.6-12.2,7.7-16.6C422.1,73.7,427.6,71.6,433.8,71.5z M432.6,74.1l-0.1,40.8
		c0.9,0.1,1.5,0.1,1.8,0.1c3.9,0,7.7-1.1,11.3-3.2c3.5-2.1,6.1-4.8,7.8-8.2c1.4-2.7,2-5.7,2-8.9c0-6.5-2.5-11.8-7.6-15.8
		c-4.1-3.3-8.5-4.9-13.3-4.9C434.1,74.1,433.5,74.1,432.6,74.1z"/>
	<path class="st1" d="M486.6,69.9v1.2l-0.1,6.7l-0.1,10.4l-0.1,15.8l0.2,8.9l0.1,3.9h-21.9l0.2-15.8l0.1-14l-0.1-7.3l-0.1-8.2l0-1.6
		H486.6z M475.6,54.8c7.5,0,11.2,2,11.2,5.9c0,1.9-1,3.4-3,4.5c-2,1.1-4.7,1.6-8.3,1.6c-7.1,0-10.7-2-10.7-6.1
		C464.9,56.9,468.5,54.9,475.6,54.8z"/>
</g>
<g>
	<defs>
		<rect id="SVGID_1_" x="70.4" y="0" width="414" height="294"/>
	</defs>
	<clipPath id="SVGID_2_">
		<use xlink:href="#SVGID_1_"  style="overflow:visible;"/>
	</clipPath>
	<g class="st2">
		<path class="st3" d="M332.8,245.4c0,0-9.8-113.8-13.2-128.4c-4.8-20.7-20.7-26.7-22.7-27.2c-0.4-0.5-2.7-2.6-11-3.6
			c-9.4-1.2-25.4,3.3-32.7,13.3c-8,11-12.1,22.1-14.5,40.3c-2.5,17.7-16.7,109.4-16.7,109.4h73.9v-3.8H332.8z"/>
		<path class="st4" d="M358.9,223.3c-2.2-20-50.3-17.7-59.2-22.9c-8.9-5.2-3.7-28.5-3.7-28.5h-15.3h-0.3h-15.3
			c0,0,5.2,23.3-3.7,28.5c-8.9,5.2-57,2.8-59.2,22.9c-2.2,20,0,112.7,0,112.7h77.5h1.7H359C358.9,336,361.1,243.3,358.9,223.3z"/>
		<path class="st5" d="M296.1,171.9h-15.3h-0.3h-15.3c0,0,1.9,8.4,1.4,16.2c8.8-2.2,18.1-3.9,28-4.9
			C294.8,177.2,296.1,171.9,296.1,171.9z"/>
		<path class="st4" d="M271.8,179.8l-10-5.9c-4.4-2.6-7.3-7.4-8.3-12.3l-3.6-19.1c-0.8-4.4,0.1-9,2.5-12.7l8.8-13.4
			c3.2-4.9,8.6-7.8,14.4-7.8h9.7c5.8,0,11.2,3,14.4,7.8l8.8,13.4c2.5,3.8,3.4,8.3,2.5,12.7l-3.6,19.1c-0.9,4.9-3.9,9.9-8.3,12.3
			l-10,5.9C283.9,182.9,277.3,182.9,271.8,179.8z"/>
		<path class="st6" d="M278.8,158c1.1,0,1.1-1.6,0-1.6C277.8,156.4,277.8,158,278.8,158z"/>
		<path class="st6" d="M282.4,158c1.1,0,1.1-1.6,0-1.6C281.4,156.4,281.4,158,282.4,158z"/>
		<path class="st7" d="M358.9,223.3c-2.2-20-50.3-17.7-59.2-22.9c-5.1,7.5-11.9,12-19.3,12c-7.4,0-14.1-4.5-19.2-11.9
			c-9.6,4.9-56.7,2.9-58.9,22.7c-2.2,20,0,112.7,0,112.7h77.5h1.7h77.5C358.9,336,361.1,243.3,358.9,223.3z"/>
		<path class="st1" d="M280.7,212.4c-0.1,0-0.2,0-0.3,0c-7.4,0-14.1-4.5-19.2-11.9c-9.6,4.9-56.7,2.9-58.9,22.7
			c-3.6,13.1-2.5,86.7,0,112.1h38.7h39.6V212.4z"/>
		<path class="st3" d="M280.5,122.7c2.7,0,5.3,0.1,8,0.2l1.9-14.3l1.6,14.5c6.2,0.2,12.1,0.8,17.4,1.5h3.5c0,0,5.1-13.8-4.8-21.9
			c-9.9-8.1-34-14.4-45.8-5.3c-11.8,9.1-17.6,27.2-17.6,27.2h7.1C260.3,123.4,270.1,122.7,280.5,122.7z"/>
		<path class="st7" d="M266.6,187.2c0,0,1.1,20,13.1,24.4c0.7,0.2-11.6,24.6-11.6,24.6s-17.6-29.7-15.9-32.8
			C254.3,199.4,266.6,187.2,266.6,187.2z"/>
		<path class="st1" d="M294.7,187.2c0,0-1.1,20-13.1,24.4c-0.7,0.2,11.6,24.6,11.6,24.6s17.6-29.7,15.9-32.8
			C306.9,199.4,294.7,187.2,294.7,187.2z"/>
		<path class="st3" d="M324.5,156.1l-29.6,26.7c-0.3,1.7-1.3,14.9,5.7,20.2c9.1,7,5.7,17.9,4.4,21.9c-1.4,4.3-4.3,15.6,3.6,27.6
			c4.8,7.3,8.2,12,8.2,17.1l7.6,0.3c0,0,36.1-0.2,35.7-0.7c-6.2-6.2-16.7-19.6-19.2-31.1c-3-14.2,6-21.8-5.9-36.9
			C325.4,189.3,325.8,164.9,324.5,156.1z"/>
		<path class="st3" d="M280.5,166c-2.4,0-7.9,0.5-7.9,0.5c0.9,0,3-3,4.5-3.3c1-0.2,2.1-0.2,2.5,0c0.3,0.2,0.7,0.2,0.8,0.2v0.3v-0.3
			c0.1,0,0.5,0,0.8-0.2c0.4-0.2,1.6-0.2,2.5,0c1.6,0.3,3.6,3.3,4.5,3.3C288.4,166.4,282.9,166,280.5,166z"/>
		<path class="st3" d="M280.5,167.8h8.1c-0.9,0-3,3-4.7,3.4c-1,0.2-2.2-0.1-2.6-0.3c-0.3-0.2-0.7-0.2-0.8-0.2c-0.2,0-0.5,0-0.8,0.2
			c-0.4,0.2-1.6,0.6-2.6,0.3c-1.6-0.4-3.8-3.4-4.7-3.4H280.5z"/>
		<path class="st8" d="M315.3,157.5l1.5,3l3.4,0.5l-2.5,2.4l0.6,3.3l-3-1.6l-3,1.6l0.5-3.3l-2.4-2.4l3.4-0.5L315.3,157.5z"/>
		<path class="st8" d="M246.4,163.6c-0.3-2.5,1.1-4.9,3.4-5.9c-0.2,0-0.3,0-0.5,0c-3,0.4-5.3,3.1-4.8,6.2c0.4,3,3.2,5.1,6.2,4.7
			c0.2,0,0.3-0.1,0.5-0.1C248.7,167.9,246.7,166,246.4,163.6z"/>
		<path class="st9" d="M184.4,268.6c6,0,6-11.5,12.1-11.5s6,11.5,12.1,11.5c6,0,6-11.5,12.1-11.5s6,11.5,12.1,11.5
			c6,0,6-11.5,12.1-11.5c6,0,6,11.5,12.1,11.5c6,0,6-11.5,12.1-11.5c6,0,6,11.5,12.1,11.5c6,0,6-11.5,12.1-11.5
			c6,0,6,11.5,12.1,11.5c6,0,6-11.5,12.1-11.5s6,11.5,12.1,11.5c6,0,6-11.5,12.1-11.5c6,0,6,11.5,12.1,11.5s6-11.5,12.1-11.5
			c6,0,6,11.5,12.1,11.5c6,0,6-11.5,12.1-11.5c6,0,6,11.5,12.1,11.5c6,0,6-11.5,12.1-11.5c6,0,6,11.5,12.1,11.5s6-11.5,12.1-11.5
			c6,0,6.3,11.5,12.3,11.5"/>
		<path class="st7" d="M182.7,272H182c-1.1,0-2-0.9-2-2v-3.3c0-1.1,0.9-2,2-2h0.7c1.1,0,2,0.9,2,2v3.3
			C184.7,271.2,183.8,272,182.7,272z"/>
		<path class="st8" d="M151,234.8c0-11.5,9.7-20.6,21.3-19.8c9.8,0.7,17.7,8.6,18.4,18.3c0.7,8.8-4.5,16.4-11.9,19.7
			c-0.8,0.4-1.3,1.1-1.3,2l-0.5,4.4c0,2.1-1.7,3.7-3.7,3.7h-4.5c-2.1,0-3.7-1.7-3.7-3.7l-0.5-4.4c0-0.9-0.5-1.6-1.3-2
			C155.9,250,151,243,151,234.8z"/>
		<path class="st10" d="M167.3,268.8V240c0-0.4,1.9-9.5,1.9-9.5s-4-2.8-5.4,0c-1.5,3.1,4.2,5.4,4.2,5.4c1.4,1.9,4.2,1.8,5.6-0.1
			c0,0,6.2-1.8,4.1-5.3c-2.1-2.7-5.3,0-5.3,0s2.2,9.2,2.2,9.6l-0.1,28.8"/>
		<path class="st3" d="M181.3,259.1h-20.9v20.2h20.9"/>
		<path class="st7" d="M181.3,259.1h-20.9l20.9,20.2"/>
	</g>
</g>
</svg>
